<svg width="128" height="128" viewBox="0 0 128 128" fill="none" xmlns="http://www.w3.org/2000/svg">
<path d="M124.483 43.0077C124.483 60.6852 110.153 75.0154 92.4753 75.0154C74.8132 75.0154 60.483 60.6852 60.483 43.0077C60.483 25.3302 74.8132 11 92.4753 11C110.153 11 124.483 25.3302 124.483 43.0077Z" fill="#FAD84C"/>
<path class="white" d="M128 83.1293C128 100.822 113.685 115.492 96.0077 115.492H32.0077C14.3148 115.492 0 101.331 0 83.6383C0 74.815 3.57869 66.8864 9.37864 61.0864C13.019 57.446 17.5387 54.7157 22.5828 53.1577C24.2796 37.069 37.8694 24.0654 54.4054 24.0654C70.4478 24.0654 83.7291 35.2334 86.0583 50.7668H96.0077C113.685 50.7668 128 65.4518 128 83.1293Z" fill="#F2F2F2" fill-opacity="0.75"/>
<path class="white" d="M88.0328 96.1482C88.0328 107.085 79.1786 116.155 68.242 116.155H28.6913C17.7701 116.155 8.91589 107.393 8.91589 96.4722C8.91589 91.0116 11.1217 86.1063 14.7004 82.5276C16.968 80.2755 19.7445 78.5941 22.8605 77.6378C23.9094 67.6884 32.3162 59.6517 42.5278 59.6517C52.4618 59.6517 60.6681 66.5623 62.1027 76.1569H68.242C79.1786 76.1569 88.0328 85.2271 88.0328 96.1482Z" fill="white"/>
</svg>
