<svg width="128" height="128" viewBox="0 0 128 128" fill="none" xmlns="http://www.w3.org/2000/svg">
<path d="M128 54.84C122.76 64.48 112.57 71.02 100.84 71.02C83.79 71.02 69.99 57.21 69.99 40.16C69.99 28.43 76.53 18.25 86.16 13C83.82 17.37 82.47 22.37 82.47 27.68C82.47 44.73 96.27 58.54 113.32 58.54C118.64 58.54 123.63 57.19 128 54.84Z" fill="white"/>
<path d="M123.42 83.89C123.42 100.94 109.62 115.1 92.57 115.1H30.86C13.81 115.1 0 101.43 0 84.38C0 75.87 3.46 68.23 9.04 62.64C12.56 59.12 16.91 56.49 21.77 54.99C23.4 39.47 36.52 26.94 52.46 26.94C67.93 26.94 80.74 37.71 82.97 52.69H92.57C109.62 52.69 123.42 66.85 123.42 83.89Z" fill="#F2F2F2" fill-opacity="0.75"/>
<path d="M84.88 96.45C84.88 106.99 76.34 115.74 65.8 115.74H27.66C17.13 115.74 8.59003 107.29 8.59003 96.75C8.59003 91.49 10.73 86.77 14.18 83.31C16.36 81.14 19.04 79.51 22.05 78.59C23.06 68.99 31.16 61.25 41.01 61.25C50.58 61.25 58.49 67.91 59.87 77.16H65.8C76.34 77.16 84.88 85.91 84.88 96.45Z" fill="white"/>
</svg>
