<svg width="128" height="128" viewBox="0 0 128 128" fill="none" xmlns="http://www.w3.org/2000/svg">
<path class="white" d="M128 77.07C128 94.75 113.68 109.43 96 109.43H32C14.32 109.43 0 95.26 0 77.58C0 68.75 3.58 60.82 9.38 55.03C13.02 51.38 17.54 48.65 22.58 47.1C24.27 31 37.87 18 54.4 18C70.45 18 83.73 29.18 86.05 44.71H96C113.68 44.71 128 59.39 128 77.07Z" fill="#F2F2F2" fill-opacity="0.75"/>
<path class="white" d="M88.02 90.09C88.02 101.02 79.17 110.1 68.24 110.1H28.69C17.76 110.1 8.90997 101.34 8.90997 90.41C8.90997 84.95 11.13 80.05 14.71 76.47C16.96 74.22 19.75 72.53 22.87 71.57C23.91 61.62 32.32 53.59 42.53 53.59C52.45 53.59 60.66 60.49 62.09 70.09H68.24C79.17 70.09 88.02 79.17 88.02 90.09Z" fill="white"/>
</svg>
