<svg width="128" height="128" viewBox="0 0 128 128" fill="none" xmlns="http://www.w3.org/2000/svg">
<path d="M127.44 58.55C127.44 76.08 113.24 90.63 95.72 90.63H32.28C14.75 90.63 0.559998 76.58 0.559998 59.06C0.559998 50.3 4.11 42.44 9.85 36.7C13.47 33.09 17.94 30.38 22.94 28.84C24.62 12.89 38.1 0 54.48 0C70.39 0 83.55 11.08 85.85 26.48H95.72C113.24 26.48 127.44 41.03 127.44 58.55Z" fill="#F2F2F2" fill-opacity="0.75"/>
<path d="M90.38 71.46C90.38 82.29 81.6 91.28 70.77 91.28H31.56C20.73 91.28 11.96 82.6 11.96 71.77C11.96 66.36 14.16 61.5 17.7 57.96C19.94 55.72 22.7 54.05 25.79 53.1C26.83 43.23 35.16 35.27 45.29 35.27C55.12 35.27 63.25 42.12 64.68 51.63H70.77C81.6 51.63 90.38 60.63 90.38 71.46Z" fill="white"/>
<path d="M36.02 116.18C33.98 118.43 30.82 118.89 28.96 117.21C27.11 115.53 27.26 112.34 29.3 110.09C30.64 108.6 34.68 107.09 37.27 106.23C38.4 105.86 39.33 106.7 39.07 107.86C38.47 110.52 37.37 114.69 36.02 116.18Z" fill="#2FB3FF" fill-opacity="0.901961"/>
<path d="M90.38 110.98C88.34 113.23 85.18 113.69 83.32 112.01C81.47 110.33 81.62 107.14 83.66 104.89C85.01 103.4 89.04 101.89 91.63 101.03C92.76 100.66 93.69 101.5 93.43 102.66C92.83 105.32 91.73 109.49 90.38 110.98Z" fill="#2FB3FF" fill-opacity="0.901961"/>
<path d="M64.66 126.59C63.26 128.14 61.08 128.46 59.8 127.3C58.52 126.15 58.63 123.95 60.03 122.39C60.96 121.37 63.74 120.33 65.53 119.74C66.31 119.48 66.95 120.06 66.77 120.86C66.36 122.69 65.59 125.56 64.66 126.59Z" fill="#2FB3FF" fill-opacity="0.901961"/>
<path d="M60.72 110.57C58.97 112.51 56.26 112.91 54.67 111.46C53.08 110.02 53.21 107.28 54.96 105.35C56.11 104.08 59.58 102.78 61.8 102.04C62.77 101.72 63.57 102.44 63.34 103.44C62.83 105.73 61.88 109.3 60.72 110.57Z" fill="#2FB3FF" fill-opacity="0.901961"/>
</svg>
