<svg width="128" height="128" viewBox="0 0 128 128" fill="none" xmlns="http://www.w3.org/2000/svg">
<g clip-path="url(#clip0_30_218)">
<path class="white" d="M118.79 28.9989C118.79 45.0094 105.802 57.9837 89.7916 57.9837C73.7811 57.9837 60.7928 45.0094 60.7928 28.9989C60.7928 12.9743 73.7811 0 89.7916 0C105.802 0 118.79 12.9743 118.79 28.9989Z" fill="#FAD84C"/>
<path class="white" d="M121.981 63.0019C121.981 79.0264 109.007 92.324 92.9825 92.324H34.9989C18.9743 92.324 6 79.4903 6 63.4657C6 55.4675 9.24708 48.2845 14.4902 43.0274C17.8076 39.7241 21.884 37.2501 26.4524 35.8444C27.9986 21.2677 40.3123 9.48822 55.2966 9.48822C69.8312 9.48822 81.8637 19.609 83.9722 33.6797H92.9825C109.007 33.6797 121.981 46.9913 121.981 63.0019Z" fill="#F2F2F2" fill-opacity="0.75"/>
<path class="white" d="M88.1048 74.8094C88.1048 84.7053 80.0785 92.9284 70.1826 92.9284H34.3382C24.4423 92.9284 16.416 84.9864 16.416 75.0906C16.416 70.1426 18.4261 65.7007 21.6731 62.4536C23.7114 60.4154 26.2415 58.8832 29.0669 58.0258C30.0087 49.0014 37.6274 41.7201 46.8908 41.7201C55.873 41.7201 63.3089 47.9894 64.6021 56.6764H70.1826C80.0785 56.6764 88.1048 64.8995 88.1048 74.8094Z" fill="white"/>
<path class="white" d="M41.5492 117.19C39.6797 119.257 36.7981 119.678 35.0972 118.146C33.3964 116.6 33.5369 113.69 35.4065 111.624C36.6294 110.274 40.3263 108.883 42.6878 108.11C43.728 107.758 44.5714 108.531 44.3324 109.6C43.7842 112.031 42.7862 115.841 41.5492 117.19Z" fill="#2FB3FF" fill-opacity="0.901961"/>
<path class="white" d="M91.2395 112.439C89.37 114.505 86.4883 114.927 84.7875 113.395C83.1007 111.849 83.2272 108.939 85.0967 106.873C86.3337 105.523 90.0166 104.132 92.3781 103.344C93.4183 103.007 94.2757 103.78 94.0368 104.848C93.4886 107.28 92.4765 111.076 91.2395 112.439Z" fill="#2FB3FF" fill-opacity="0.901961"/>
<path class="white" d="M67.7368 126.721C66.4436 128.126 64.4616 128.421 63.2949 127.367C62.1141 126.313 62.2125 124.303 63.5058 122.883C64.3491 121.941 66.8934 120.986 68.524 120.451C69.2409 120.212 69.8172 120.747 69.6626 121.478C69.283 123.15 68.5802 125.779 67.7368 126.721Z" fill="#2FB3FF" fill-opacity="0.901961"/>
<path class="white" d="M64.1383 112.074C62.5358 113.845 60.0478 114.21 58.6 112.889C57.1381 111.568 57.2646 109.066 58.8671 107.294C59.9213 106.128 63.084 104.947 65.1082 104.272C65.9938 103.977 66.7247 104.638 66.5279 105.551C66.0641 107.646 65.1925 110.907 64.1383 112.074Z" fill="#2FB3FF" fill-opacity="0.901961"/>
</g>
<defs>
<clipPath id="clip0_30_218">
<rect width="128" height="128" fill="white"/>
</clipPath>
</defs>
</svg>
