<svg width="128" height="128" viewBox="0 0 128 128" fill="none" xmlns="http://www.w3.org/2000/svg">
<g clip-path="url(#clip0_30_219)">
<path class="white" d="M123.598 38.7695C118.748 47.6894 109.309 53.7593 98.4388 53.7593C82.639 53.7593 69.8491 40.9595 69.8491 25.1697C69.8491 14.2898 75.909 4.85994 84.8389 0C82.659 4.04995 81.409 8.66989 81.409 13.5998C81.409 29.3996 94.1988 42.1894 109.999 42.1894C114.929 42.1894 119.548 40.9395 123.598 38.7695Z" fill="white"/>
<path class="white" d="M119.359 65.6892C119.359 81.479 106.569 94.5988 90.7689 94.5988H33.5896C17.7898 94.5988 5 81.939 5 66.1392C5 58.2493 8.19996 51.1694 13.3699 45.9894C16.6298 42.7295 20.6698 40.2895 25.1697 38.9095C26.6797 24.5197 38.8396 12.9099 53.5994 12.9099C67.9392 12.9099 79.809 22.8997 81.879 36.7695H90.7689C106.569 36.7695 119.359 49.8894 119.359 65.6892Z" fill="#F2F2F2" fill-opacity="0.75"/>
<path class="white" d="M83.6389 77.319C83.6389 87.0789 75.7391 95.1888 65.9692 95.1888H30.6296C20.8698 95.1888 12.9599 87.3589 12.9599 77.599C12.9599 72.7191 14.9398 68.3492 18.1398 65.1492C20.1498 63.1292 22.6397 61.6292 25.4297 60.7693C26.3597 51.8794 33.8696 44.6995 42.9995 44.6995C51.8594 44.6995 59.1993 50.8694 60.4793 59.4493H65.9692C75.7391 59.4493 83.6389 67.5592 83.6389 77.319Z" fill="white"/>
<path class="white" d="M40.4296 117.338C38.5896 119.368 35.7396 119.788 34.0696 118.278C32.3997 116.758 32.5297 113.889 34.3696 111.859C35.5896 110.509 39.2196 109.149 41.5595 108.379C42.5795 108.039 43.4195 108.799 43.1795 109.849C42.6395 112.249 41.6495 115.998 40.4296 117.338Z" fill="#2FB3FF" fill-opacity="0.901961"/>
<path class="white" d="M89.4289 112.649C87.5889 114.689 84.739 115.099 83.069 113.589C81.399 112.069 81.529 109.199 83.369 107.169C84.589 105.829 88.2189 104.459 90.5589 103.689C91.5789 103.349 92.4189 104.109 92.1789 105.159C91.6389 107.559 90.6389 111.309 89.4289 112.649Z" fill="#2FB3FF" fill-opacity="0.901961"/>
<path class="white" d="M66.2492 126.728C64.9792 128.128 63.0193 128.418 61.8693 127.368C60.7093 126.328 60.8093 124.348 62.0793 122.948C62.9093 122.018 65.4192 121.078 67.0292 120.548C67.7292 120.318 68.3092 120.838 68.1492 121.558C67.7792 123.218 67.0892 125.798 66.2492 126.728Z" fill="#2FB3FF" fill-opacity="0.901961"/>
<path class="white" d="M62.6992 112.289C61.1192 114.029 58.6792 114.389 57.2393 113.089C55.8093 111.789 55.9193 109.329 57.4993 107.589C58.5493 106.429 61.6592 105.259 63.6692 104.599C64.5392 104.309 65.2592 104.959 65.0592 105.859C64.5992 107.919 63.7392 111.139 62.6992 112.289Z" fill="#2FB3FF" fill-opacity="0.901961"/>
</g>
<defs>
<clipPath id="clip0_30_219">
<rect width="128" height="128" fill="white"/>
</clipPath>
</defs>
</svg>
