<svg width="128" height="128" viewBox="0 0 128 128" fill="none" xmlns="http://www.w3.org/2000/svg">
<path d="M123.1 38.6C118.27 47.49 108.87 53.53 98.0399 53.53C82.3099 53.53 69.5699 40.79 69.5699 25.06C69.5699 14.23 75.6099 4.84 84.4999 0C82.3299 4.03 81.09 8.64 81.09 13.54C81.09 29.27 93.83 42.01 109.56 42.01C114.46 42.01 119.07 40.77 123.1 38.6V38.6Z" fill="white"/>
<path d="M118.88 65.41C118.88 81.14 106.14 94.2 90.41 94.2H33.47C17.74 94.2 5 81.59 5 65.86C5 58 8.19 50.95 13.34 45.8C16.58 42.55 20.6 40.12 25.08 38.74C26.59 24.42 38.69 12.85 53.4 12.85C67.68 12.85 79.49 22.8 81.55 36.62H90.41C106.14 36.62 118.88 49.68 118.88 65.41V65.41Z" fill="#F2F2F2" fill-opacity="0.75"/>
<path d="M83.3101 76.99C83.3101 86.72 75.4401 94.79 65.7201 94.79H30.5201C20.8001 94.79 12.9301 86.99 12.9301 77.27C12.9301 72.42 14.9001 68.06 18.0801 64.87C20.0901 62.87 22.5701 61.36 25.3401 60.51C26.2701 51.66 33.7501 44.51 42.8401 44.51C51.6601 44.51 58.9701 50.66 60.2401 59.2H65.7201C75.4401 59.2 83.3101 67.27 83.3101 76.99V76.99Z" fill="white"/>
<path d="M66.15 124.18C66.15 126.29 64.44 128 62.33 128C60.22 128 58.51 126.29 58.51 124.18C58.51 122.07 60.22 120.36 62.33 120.36C64.44 120.36 66.15 122.07 66.15 124.18Z" fill="white" fill-opacity="0.901961"/>
<path d="M89.29 116.09C89.29 119.07 86.87 121.49 83.9 121.49C80.92 121.49 78.51 119.07 78.51 116.09C78.51 113.12 80.92 110.7 83.9 110.7C86.87 110.7 89.29 113.12 89.29 116.09Z" fill="white" fill-opacity="0.901961"/>
<path d="M40.76 110.7C40.76 113.68 38.35 116.09 35.37 116.09C32.4 116.09 29.98 113.68 29.98 110.7C29.98 107.73 32.4 105.31 35.37 105.31C38.35 105.31 40.76 107.73 40.76 110.7Z" fill="white" fill-opacity="0.901961"/>
</svg>
