<svg width="128" height="128" viewBox="0 0 128 128" fill="none" xmlns="http://www.w3.org/2000/svg">
<path d="M126.685 59.5288C126.685 77.0279 112.517 91.5463 95.0181 91.5463H31.6844C14.2028 91.5463 0.0175476 77.5189 0.0175476 60.0373C0.0175476 51.2877 3.577 43.4499 9.3107 37.7162C12.9052 34.1041 17.3765 31.4038 22.3737 29.8608C24.0395 13.9397 37.5058 1.06958 53.8652 1.06958C69.7337 1.06958 82.8844 12.1337 85.1814 27.4937H95.0181C112.517 27.4937 126.685 42.0296 126.685 59.5288Z" fill="#F2F2F2" fill-opacity="0.75"/>
<path d="M87.1277 72.4164C87.1277 83.2175 78.3781 92.1951 67.5595 92.1951H28.4231C17.6044 92.1951 8.83733 83.5331 8.83733 72.7145C8.83733 67.314 11.0291 62.4745 14.571 58.9326C16.8154 56.7058 19.5683 55.0225 22.6543 54.0756C23.6888 44.2389 32.0001 36.2784 42.1173 36.2784C51.9365 36.2784 60.0549 43.1167 61.4751 52.6203H67.5595C78.3781 52.6203 87.1277 61.5978 87.1277 72.4164Z" fill="white"/>
<path d="M57.7929 123.196C57.7929 125.528 55.8992 127.439 53.5496 127.439C51.2 127.439 49.3063 125.528 49.3063 123.196C49.3063 120.846 51.2 118.935 53.5496 118.935C55.8992 118.935 57.7929 120.846 57.7929 123.196Z" fill="white" fill-opacity="0.901961"/>
<path d="M83.5331 114.201C83.5331 117.497 80.8504 120.197 77.5364 120.197C74.2224 120.197 71.5397 117.497 71.5397 114.201C71.5397 110.887 74.2224 108.204 77.5364 108.204C80.8504 108.204 83.5331 110.887 83.5331 114.201Z" fill="white" fill-opacity="0.901961"/>
<path d="M29.5628 108.204C29.5628 111.5 26.88 114.201 23.5661 114.201C20.2521 114.201 17.5694 111.5 17.5694 108.204C17.5694 104.89 20.2521 102.207 23.5661 102.207C26.88 102.207 29.5628 104.89 29.5628 108.204Z" fill="white" fill-opacity="0.901961"/>
</svg>
