<svg width="128" height="128" viewBox="0 0 128 128" fill="none" xmlns="http://www.w3.org/2000/svg">
<g clip-path="url(#clip0_30_221)">
<path d="M119.247 29.5067C119.247 45.8059 106.216 59.0134 90.1341 59.0134C74.0523 59.0134 61.021 45.8059 61.021 29.5067C61.021 13.2075 74.0523 0 90.1341 0C106.216 0 119.247 13.2075 119.247 29.5067V29.5067Z" fill="#F8FF00"/>
<path d="M122.452 66.5076C122.452 82.8068 109.435 96.342 93.3392 96.342H35.1131C19.0313 96.342 6 83.2769 6 66.9777C6 58.8281 9.26134 51.5192 14.5329 46.1906C17.8505 42.8281 21.9552 40.3063 26.538 38.8673C28.0843 24.0214 40.4549 12.0392 55.4964 12.0392C70.0881 12.0392 82.1775 22.3402 84.2861 36.6732H93.3392C109.435 36.6732 122.452 50.2084 122.452 66.5076Z" fill="#F2F2F2" fill-opacity="0.75"/>
<path d="M86.0855 78.5183C86.0855 88.5913 78.0306 96.9546 68.0919 96.9546H32.1048C22.1661 96.9546 14.1112 88.8762 14.1112 78.8032C14.1112 73.7738 16.1214 69.2573 19.3828 65.9519C21.4352 63.8718 23.9655 62.3188 26.8051 61.4354C27.761 52.26 35.4083 44.8513 44.7003 44.8513C53.7252 44.8513 61.1897 51.2199 62.4971 60.0677H68.0919C78.0306 60.0677 86.0855 68.4452 86.0855 78.5183Z" fill="white"/>
<path d="M71.6203 124.039C71.6203 126.233 69.8632 128 67.7124 128C65.5475 128 63.8044 126.233 63.8044 124.039C63.8044 121.859 65.5475 120.078 67.7124 120.078C69.8632 120.078 71.6203 121.859 71.6203 124.039Z" fill="white" fill-opacity="0.901961"/>
<path d="M95.2792 115.662C95.2792 118.753 92.805 121.247 89.7686 121.247C86.7181 121.247 84.244 118.753 84.244 115.662C84.244 112.57 86.7181 110.077 89.7686 110.077C92.805 110.077 95.2792 112.57 95.2792 115.662Z" fill="white" fill-opacity="0.901961"/>
<path d="M45.6562 110.077C45.6562 113.154 43.1821 115.662 40.1456 115.662C37.0952 115.662 34.6351 113.154 34.6351 110.077C34.6351 106.985 37.0952 104.477 40.1456 104.477C43.1821 104.477 45.6562 106.985 45.6562 110.077Z" fill="white" fill-opacity="0.901961"/>
</g>
<defs>
<clipPath id="clip0_30_221">
<rect width="128" height="128" fill="white"/>
</clipPath>
</defs>
</svg>
