<svg width="128" height="128" viewBox="0 0 128 128" fill="none" xmlns="http://www.w3.org/2000/svg">
<path d="M51.57 84.01L37.83 103.4C36.42 105.39 37.84 108.14 40.28 108.14C42.62 108.14 44.06 110.71 42.83 112.71L35.51 124.61C35.04 125.38 36.03 126.21 36.7 125.61L59.97 104.79C61.83 103.13 60.97 100.06 58.52 99.61H58.51C56.45 99.22 55.41 96.89 56.5 95.1L61.25 87.3C62.47 85.3 61.03 82.74 58.69 82.74H54.01C53.04 82.74 52.13 83.21 51.57 84.01Z" fill="#2FB3FF" fill-opacity="0.901961"/>
<path class="white" d="M128 61.07C128 78.75 113.68 93.43 96 93.43H32C14.32 93.43 0 79.26 0 61.58C0 52.75 3.58 44.82 9.37 39.03C13.02 35.39 17.54 32.65 22.57 31.1C24.27 15 37.87 2 54.4 2C70.45 2 83.73 13.18 86.05 28.72H96C113.68 28.72 128 43.4 128 61.07Z" fill="#F2F2F2" fill-opacity="0.75"/>
<path class="white" d="M88.02 74.09C88.02 85.02 79.17 94.09 68.24 94.09H28.69C17.76 94.09 8.90997 85.34 8.90997 74.41C8.90997 68.95 11.13 64.05 14.71 60.47C16.96 58.22 19.75 56.53 22.86 55.57C23.91 45.62 32.32 37.59 42.53 37.59C52.45 37.59 60.66 44.49 62.09 54.09H68.24C79.17 54.09 88.02 63.17 88.02 74.09Z" fill="white"/>
</svg>
