<svg width="128" height="128" viewBox="0 0 128 128" fill="none" xmlns="http://www.w3.org/2000/svg">
<path d="M48.41 88.48L35.43 106.81C34.1 108.69 35.44 111.29 37.74 111.29C39.96 111.29 41.32 113.72 40.16 115.61L33.23 126.86C32.79 127.59 33.72 128.37 34.36 127.8L56.36 108.13C58.11 106.56 57.3 103.66 54.98 103.23C53.03 102.86 52.04 100.66 53.08 98.96L57.57 91.59C58.72 89.7 57.35 87.28 55.14 87.28H50.73C49.81 87.28 48.94 87.73 48.41 88.48V88.48Z" fill="#2FB3FF" fill-opacity="0.901961"/>
<path d="M126.48 41.02C121.35 50.46 111.36 56.87 99.86 56.87C83.14 56.87 69.61 43.34 69.61 26.63C69.61 15.12 76.02 5.14 85.47 0C83.17 4.28 81.85 9.18 81.85 14.39C81.85 31.1 95.38 44.64 112.09 44.64C117.31 44.64 122.2 43.32 126.48 41.02V41.02Z" fill="white"/>
<path d="M122 69.5C122 86.21 108.46 100.09 91.75 100.09H31.25C14.53 100.09 1 86.69 1 69.98C1 61.63 4.38 54.14 9.86 48.66C13.31 45.21 17.57 42.63 22.34 41.17C23.94 25.95 36.8 13.66 52.42 13.66C67.59 13.66 80.15 24.22 82.34 38.91H91.75C108.46 38.91 122 52.79 122 69.5Z" fill="#F2F2F2" fill-opacity="0.75"/>
<path d="M84.21 81.81C84.21 92.14 75.84 100.71 65.51 100.71H28.12C17.79 100.71 9.41998 92.43 9.41998 82.1C9.41998 76.94 11.51 72.31 14.9 68.93C17.03 66.8 19.67 65.2 22.61 64.3C23.6 54.89 31.55 47.3 41.2 47.3C50.58 47.3 58.34 53.83 59.7 62.9H65.51C75.84 62.9 84.21 71.48 84.21 81.81V81.81Z" fill="white"/>
</svg>
