<svg width="128" height="128" viewBox="0 0 128 128" fill="none" xmlns="http://www.w3.org/2000/svg">
<path d="M53.5495 88.2935L40.7893 106.311C39.4857 108.151 40.8038 110.7 43.0632 110.7C45.2358 110.7 46.5828 113.09 45.4386 114.944L38.6457 125.995C38.1967 126.719 39.1237 127.486 39.7465 126.922L61.3562 107.6C63.0797 106.051 62.2831 103.212 60.0092 102.777H59.9947C58.0829 102.43 57.1125 100.257 58.1263 98.5914L62.5438 91.3495C63.6736 89.4956 62.3266 87.1203 60.154 87.1203H55.8234C54.9109 87.1203 54.0709 87.5548 53.5495 88.2935Z" fill="#2FB3FF" fill-opacity="0.901961"/>
<path d="M123.071 30.7206C123.071 47.1307 109.775 60.4268 93.3653 60.4268C76.9552 60.4268 63.6591 47.1307 63.6591 30.7206C63.6591 14.3105 76.9552 1 93.3653 1C109.775 1 123.071 14.3105 123.071 30.7206V30.7206Z" fill="#F8FF00"/>
<path d="M123.839 70.4785C123.839 86.8886 110.543 100.518 94.1329 100.518H34.7061C18.2961 100.518 5 87.3665 5 70.9565C5 62.7442 8.33126 55.3864 13.7047 50.013C17.0939 46.6238 21.2797 44.0891 25.958 42.6552C27.5367 27.708 40.1665 15.6286 55.5048 15.6286C70.4085 15.6286 82.7342 26.0134 84.8923 40.4392H94.1329C110.543 40.4392 123.839 54.0684 123.839 70.4785V70.4785Z" fill="#F2F2F2" fill-opacity="0.75"/>
<path d="M86.7317 82.5724C86.7317 92.711 78.505 101.141 68.3664 101.141H31.6356C21.497 101.141 13.2702 93.0007 13.2702 82.8621C13.2702 77.7928 15.3269 73.2449 18.6582 69.9136C20.7438 67.8279 23.3364 66.2637 26.2332 65.3657C27.2036 56.1251 35.0103 48.666 44.4972 48.666C53.6943 48.666 61.3273 55.0823 62.6453 64.0042H68.3664C78.505 64.0042 86.7317 72.4193 86.7317 82.5724V82.5724Z" fill="white"/>
</svg>
