<svg width="128" height="128" viewBox="0 0 128 128" fill="none" xmlns="http://www.w3.org/2000/svg">
<path d="M128 62.07C128 79.75 113.68 94.43 96 94.43H32C14.32 94.43 0 80.26 0 62.58C0 53.75 3.59 45.82 9.38 40.03C13.02 36.38 17.54 33.65 22.58 32.1C24.27 16 37.87 3 54.4 3C70.45 3 83.73 14.18 86.05 29.71H96C113.68 29.71 128 44.39 128 62.07V62.07Z" fill="#F2F2F2" fill-opacity="0.75"/>
<path d="M88.02 75.09C88.02 86.02 79.17 95.09 68.25 95.09H28.69C17.76 95.09 8.90997 86.33 8.90997 75.41C8.90997 69.95 11.13 65.05 14.71 61.47C16.96 59.21 19.75 57.53 22.87 56.57C23.91 46.62 32.32 38.58 42.53 38.58C52.45 38.58 60.66 45.49 62.09 55.09H68.25C79.17 55.09 88.02 64.16 88.02 75.09V75.09Z" fill="white"/>
<path d="M29.97 108.3C29.97 108.3 30.81 108.27 32.28 108.21C33.73 108.15 35.79 108.08 38.21 107.91C40.62 107.75 43.41 107.52 46.3 107.07C47.75 106.85 49.22 106.55 50.69 106.21C52.15 105.85 53.6 105.42 55 104.89L57.49 104.11C58.41 103.91 59.39 103.73 60.31 103.6C62.09 103.42 63.84 103.43 65.5 103.61C68.81 103.98 71.74 104.94 74.1 106.02C76.46 107.11 78.28 108.29 79.5 109.2C80.71 110.11 81.32 110.75 81.32 110.75C81.32 110.75 80.5 110.57 79.07 110.25C77.64 109.96 75.63 109.55 73.25 109.23C70.88 108.9 68.14 108.64 65.3 108.71C64.58 108.72 63.88 108.81 63.16 108.85C62.44 108.92 61.74 109.06 61.02 109.14C60.34 109.28 59.72 109.45 59.05 109.58L56.82 110.32C55.97 110.59 55.12 110.9 54.26 111.13C53.4 111.34 52.54 111.55 51.69 111.69C49.98 111.98 48.29 112.13 46.67 112.15C43.43 112.2 40.45 111.79 37.96 111.22C35.47 110.64 33.46 109.92 32.09 109.33C30.71 108.75 29.97 108.3 29.97 108.3V108.3Z" fill="white" fill-opacity="0.901961"/>
<path d="M111.2 121.19C111.2 121.19 110.36 121.13 108.9 121.02C107.45 120.9 105.4 120.75 102.98 120.49C100.57 120.24 97.8 119.9 94.93 119.35C93.49 119.07 92.03 118.72 90.58 118.33C89.13 117.91 87.7 117.42 86.32 116.84L83.86 115.97C82.94 115.73 81.97 115.52 81.06 115.36C79.28 115.11 77.54 115.05 75.87 115.17C72.55 115.41 69.59 116.26 67.19 117.25C64.78 118.25 62.92 119.36 61.68 120.23C60.43 121.09 59.79 121.7 59.79 121.7C59.79 121.7 60.62 121.55 62.07 121.29C63.5 121.06 65.53 120.73 67.92 120.49C70.3 120.25 73.05 120.09 75.88 120.28C76.6 120.31 77.3 120.43 78.02 120.49C78.73 120.59 79.43 120.76 80.15 120.86C80.81 121.03 81.43 121.22 82.1 121.38L84.29 122.19C85.13 122.5 85.97 122.85 86.82 123.11C87.67 123.34 88.52 123.59 89.37 123.76C91.07 124.12 92.75 124.33 94.37 124.41C97.61 124.58 100.6 124.29 103.11 123.81C105.62 123.33 107.65 122.68 109.05 122.15C110.44 121.61 111.2 121.19 111.2 121.19V121.19Z" fill="white" fill-opacity="0.901961"/>
</svg>
