<svg width="40" height="40" viewBox="0 0 40 40" fill="none" xmlns="http://www.w3.org/2000/svg">
<path d="M16.6284 9.81123C16.9537 9.48991 17.3548 9.25249 17.7961 9.12007C18.2373 8.98765 18.7051 8.96434 19.1577 9.05221C19.6104 9.14008 20.0339 9.33641 20.3907 9.62374C20.7474 9.91107 21.0264 10.2805 21.2027 10.6992C21.379 11.1179 21.4472 11.5729 21.4013 12.0237C21.3554 12.4745 21.1967 12.9072 20.9395 13.2833C20.6822 13.6594 20.3343 13.9673 19.9266 14.1796C19.519 14.3918 19.0642 14.5019 18.6028 14.5H6M20.8293 30.1888C21.1546 30.5101 21.5557 30.7475 21.997 30.8799C22.4383 31.0123 22.906 31.0357 23.3587 30.9478C23.8113 30.8599 24.2349 30.6636 24.5916 30.3763C24.9484 30.0889 25.2273 29.7195 25.4036 29.3008C25.5799 28.8821 25.6482 28.4271 25.6022 27.9763C25.5563 27.5255 25.3977 27.0928 25.1404 26.7167C24.8831 26.3406 24.5352 26.0327 24.1276 25.8204C23.7199 25.6082 23.2652 25.4981 22.8038 25.5H6M28.0269 14.1287C28.4342 13.7298 28.9353 13.4356 29.486 13.2721C30.0366 13.1086 30.6198 13.0809 31.1839 13.1914C31.7481 13.3019 32.2758 13.5471 32.7204 13.9055C33.165 14.2639 33.5129 14.7244 33.7332 15.2462C33.9534 15.768 34.0394 16.3351 33.9834 16.8972C33.9273 17.4594 33.7311 17.9994 33.412 18.4693C33.0929 18.9393 32.6608 19.3249 32.1538 19.5918C31.6469 19.8588 31.0807 19.999 30.5055 20H6" stroke="#2D9CDB" stroke-width="2" stroke-linecap="round" stroke-linejoin="round"/>
</svg>
