<svg width="128" height="128" viewBox="0 0 128 128" fill="none" xmlns="http://www.w3.org/2000/svg">
<path d="M122.058 30.8677C122.058 47.9049 108.242 61.7355 91.1899 61.7355C74.1528 61.7355 60.3369 47.9049 60.3369 30.8677C60.3369 13.8159 74.1528 0 91.1899 0C108.242 0 122.058 13.8159 122.058 30.8677Z" fill="#F8FF00"/>
<path d="M125.456 67.0698C125.456 84.1217 111.64 98.2774 94.5885 98.2774H32.8678C15.8159 98.2774 2 84.6093 2 67.5574C2 59.0462 5.45766 51.3921 11.0431 45.8066C14.5599 42.2899 18.9189 39.6597 23.7803 38.1672C25.4057 22.6373 38.5271 10.0922 54.4708 10.0922C69.9416 10.0922 82.7527 20.8789 84.9987 35.8621H94.5885C111.64 35.8621 125.456 50.0179 125.456 67.0698V67.0698Z" fill="#F2F2F2" fill-opacity="0.75"/>
<path d="M89.3872 79.6297C89.3872 90.1652 80.8613 98.9128 70.311 98.9128H32.1733C21.623 98.9128 13.097 90.4755 13.097 79.9252C13.097 74.6648 15.2248 69.9364 18.6825 66.4935C20.8546 64.3066 23.5439 62.6812 26.5435 61.7651C27.5631 52.1605 35.6753 44.4177 45.5163 44.4177C55.0914 44.4177 62.9967 51.0818 64.3857 60.3318H70.311C80.8613 60.3318 89.3872 69.0941 89.3872 79.6297Z" fill="white"/>
<path d="M22.7902 111.65C22.7902 111.65 23.6029 111.62 25.0214 111.576C26.4252 111.517 28.4052 111.443 30.7399 111.281C33.0745 111.133 35.7491 110.896 38.5418 110.468C39.9455 110.261 41.3641 109.98 42.7678 109.64C44.1863 109.301 45.5753 108.872 46.9347 108.37L49.3285 107.616C50.2299 107.424 51.1756 107.261 52.0621 107.128C53.7762 106.951 55.4607 106.966 57.0565 107.143C60.263 107.483 63.0853 108.414 65.3608 109.463C67.6364 110.512 69.3948 111.65 70.5621 112.522C71.7294 113.408 72.3205 114.014 72.3205 114.014C72.3205 114.014 71.5373 113.852 70.1484 113.541C68.7742 113.261 66.8385 112.862 64.5334 112.551C62.243 112.241 59.5981 111.975 56.8644 112.064C56.1847 112.064 55.4902 112.152 54.7958 112.182C54.116 112.256 53.4363 112.389 52.7418 112.463C52.0917 112.61 51.4859 112.773 50.8357 112.891L48.6931 113.6C47.8657 113.866 47.053 114.162 46.2255 114.384C45.398 114.591 44.5558 114.797 43.7431 114.93C42.0881 115.211 40.4627 115.344 38.8964 115.374C35.7638 115.418 32.8972 115.019 30.5035 114.472C28.0949 113.926 26.1592 113.231 24.8441 112.655C23.5143 112.093 22.7902 111.65 22.7902 111.65V111.65Z" fill="white" fill-opacity="0.901961"/>
<path d="M101.134 124.092C101.134 124.092 100.337 124.033 98.918 123.929C97.5143 123.811 95.549 123.663 93.2144 123.412C90.8945 123.176 88.22 122.85 85.442 122.319C84.053 122.053 82.6493 121.713 81.2455 121.329C79.8566 120.93 78.4676 120.457 77.1377 119.895L74.7735 119.053C73.8869 118.831 72.956 118.624 72.0694 118.462C70.3554 118.225 68.6709 118.166 67.075 118.285C63.8538 118.521 61.002 119.334 58.6968 120.294C56.377 121.255 54.5742 122.333 53.3774 123.161C52.1657 123.988 51.5599 124.579 51.5599 124.579C51.5599 124.579 52.3578 124.446 53.7468 124.195C55.1357 123.959 57.0862 123.648 59.3913 123.412C61.6964 123.19 64.3414 123.028 67.075 123.205C67.7695 123.249 68.4492 123.353 69.1289 123.412C69.8234 123.515 70.5031 123.678 71.1828 123.767C71.833 123.929 72.4241 124.121 73.0742 124.269L75.1872 125.052C75.9999 125.348 76.8126 125.688 77.6253 125.939C78.4528 126.16 79.2655 126.412 80.093 126.574C81.7184 126.914 83.3438 127.121 84.9101 127.195C88.0279 127.357 90.9093 127.077 93.3326 126.618C95.7559 126.146 97.7211 125.525 99.0658 125.008C100.41 124.505 101.134 124.092 101.134 124.092V124.092Z" fill="white" fill-opacity="0.901961"/>
</svg>
