<svg width="128" height="128" viewBox="0 0 128 128" fill="none" xmlns="http://www.w3.org/2000/svg">
<path d="M125.12 40.24C120.08 49.51 110.28 55.8 99 55.8C82.6 55.8 69.32 42.53 69.32 26.13C69.32 14.84 75.61 5.04 84.88 0C82.62 4.2 81.33 9 81.33 14.12C81.33 30.52 94.6 43.8 111 43.8C116.12 43.8 120.92 42.5 125.12 40.24Z" fill="white"/>
<path d="M120.72 68.19C120.72 84.59 107.44 98.2 91.04 98.2H31.68C15.28 98.2 2 85.06 2 68.66C2 60.47 5.32 53.12 10.69 47.75C14.08 44.36 18.26 41.83 22.94 40.39C24.51 25.46 37.13 13.4 52.46 13.4C67.34 13.4 79.66 23.77 81.81 38.18H91.04C107.44 38.18 120.72 51.79 120.72 68.19V68.19Z" fill="#F2F2F2" fill-opacity="0.75"/>
<path d="M83.64 80.27C83.64 90.4 75.43 98.82 65.3 98.82H28.61C18.47 98.82 10.26 90.69 10.26 80.56C10.26 75.49 12.32 70.95 15.64 67.63C17.73 65.54 20.32 63.97 23.21 63.08C24.18 53.86 31.97 46.41 41.45 46.41C50.65 46.41 58.26 52.81 59.59 61.72H65.3C75.43 61.72 83.64 70.13 83.64 80.27Z" fill="white"/>
<path d="M26.65 113.01C26.65 113.01 27.42 112.98 28.78 112.93C30.13 112.88 32.04 112.81 34.28 112.65C36.53 112.5 39.11 112.28 41.79 111.87C43.14 111.66 44.5 111.39 45.86 111.08C47.22 110.74 48.56 110.34 49.86 109.85L52.17 109.13C53.02 108.94 53.93 108.78 54.78 108.66C56.44 108.49 58.06 108.5 59.6 108.66C62.67 109 65.39 109.9 67.58 110.89C69.77 111.9 71.45 113 72.58 113.85C73.71 114.69 74.27 115.28 74.27 115.28C74.27 115.28 73.51 115.12 72.18 114.82C70.86 114.55 68.99 114.18 66.79 113.88C64.59 113.57 62.04 113.32 59.41 113.4C58.75 113.41 58.09 113.49 57.43 113.52C56.76 113.59 56.11 113.72 55.44 113.79C54.82 113.92 54.24 114.08 53.61 114.2L51.55 114.88C50.76 115.13 49.97 115.43 49.17 115.64C48.38 115.83 47.58 116.03 46.79 116.16C45.2 116.43 43.64 116.56 42.13 116.58C39.12 116.63 36.36 116.25 34.05 115.72C31.74 115.19 29.88 114.52 28.61 113.97C27.33 113.43 26.65 113.01 26.65 113.01V113.01Z" fill="white" fill-opacity="0.901961"/>
<path d="M101.99 124.97C101.99 124.97 101.21 124.91 99.85 124.81C98.51 124.7 96.6 124.56 94.37 124.32C92.13 124.09 89.56 123.77 86.89 123.26C85.56 123 84.2101 122.68 82.8601 122.31C81.5201 121.92 80.19 121.47 78.91 120.94L76.63 120.13C75.78 119.91 74.88 119.71 74.03 119.56C72.38 119.33 70.7601 119.27 69.2201 119.38C66.1301 119.61 63.39 120.4 61.16 121.31C58.93 122.24 57.21 123.27 56.05 124.08C54.89 124.88 54.3 125.44 54.3 125.44C54.3 125.44 55.07 125.31 56.41 125.07C57.74 124.84 59.62 124.54 61.84 124.32C64.05 124.1 66.6 123.95 69.23 124.12C69.89 124.15 70.54 124.26 71.21 124.32C71.87 124.41 72.52 124.57 73.18 124.66C73.8 124.82 74.37 125 74.99 125.14L77.03 125.9C77.81 126.18 78.59 126.5 79.37 126.75C80.16 126.96 80.95 127.2 81.74 127.35C83.31 127.68 84.87 127.88 86.37 127.95C89.38 128.11 92.15 127.84 94.48 127.4C96.81 126.95 98.69 126.35 99.99 125.85C101.28 125.36 101.99 124.97 101.99 124.97V124.97Z" fill="white" fill-opacity="0.901961"/>
</svg>
